<svg xmlns="http://www.w3.org/2000/svg" xmlns:xlink="http://www.w3.org/1999/xlink" viewBox="0 0 397.67 289.57"><defs><style>.cls-1{fill:url(#linear-gradient);}.cls-15,.cls-16,.cls-2,.cls-9{fill:none;}.cls-3{fill:url(#linear-gradient-2);}.cls-4{fill:#fff;}.cls-5{fill:url(#linear-gradient-3);}.cls-6{fill:url(#linear-gradient-4);}.cls-7{fill:url(#linear-gradient-5);}.cls-8{fill:url(#linear-gradient-6);}.cls-15,.cls-16,.cls-9{stroke-linecap:square;stroke-width:7.11px;}.cls-10,.cls-12,.cls-15,.cls-16,.cls-9{stroke-miterlimit:10;}.cls-9{stroke:url(#linear-gradient-7);}.cls-10,.cls-11,.cls-12{fill:#95bb3d;}.cls-10{stroke:#1a1b31;}.cls-10,.cls-12{stroke-width:10.47px;}.cls-12{stroke:#fff;}.cls-13{fill:url(#linear-gradient-9);}.cls-14{fill:url(#linear-gradient-10);}.cls-15{stroke:url(#linear-gradient-13);}.cls-16{stroke:url(#linear-gradient-14);}.cls-17{opacity:0.6;fill:url(#linear-gradient-15);}.cls-18{fill:url(#linear-gradient-16);}.cls-19{fill:url(#linear-gradient-17);}.cls-20{fill:#e5eca7;}.cls-21{fill:#f9fbeb;}</style><linearGradient id="linear-gradient" y1="144.78" x2="289.57" y2="144.78" gradientUnits="userSpaceOnUse"><stop offset="0" stop-color="#586382"/><stop offset="0.48" stop-color="#363954"/></linearGradient><linearGradient id="linear-gradient-2" x1="55.08" y1="102.92" x2="344.65" y2="102.92" gradientTransform="translate(-56.8 31.94) rotate(-0.81)" xlink:href="#linear-gradient"/><linearGradient id="linear-gradient-3" x1="792.67" y1="2311.88" x2="792.68" y2="2311.88" gradientTransform="matrix(46.99, -12.76, -11.33, -42.13, -10908.69, 107647.25)" gradientUnits="userSpaceOnUse"><stop offset="0" stop-color="#4f672f"/><stop offset="0.21" stop-color="#4f672f"/><stop offset="0.39" stop-color="#526b30"/><stop offset="0.56" stop-color="#5c7632"/><stop offset="0.73" stop-color="#6c8a35"/><stop offset="0.89" stop-color="#82a539"/><stop offset="1" stop-color="#95bb3d"/></linearGradient><linearGradient id="linear-gradient-4" x1="792.56" y1="2312.09" x2="792.56" y2="2312.09" xlink:href="#linear-gradient-3"/><linearGradient id="linear-gradient-5" x1="792.68" y1="2312.05" x2="792.68" y2="2312.05" xlink:href="#linear-gradient-3"/><linearGradient id="linear-gradient-6" x1="169.8" y1="164.85" x2="302.39" y2="164.85" gradientTransform="translate(-4.75 0.16) rotate(-0.08)" xlink:href="#linear-gradient-3"/><linearGradient id="linear-gradient-7" x1="136.78" y1="195.5" x2="283.1" y2="111.28" gradientTransform="translate(-4.75 0.16) rotate(-0.08)" gradientUnits="userSpaceOnUse"><stop offset="0" stop-color="#95bb3d"/><stop offset="0.21" stop-color="#759537" stop-opacity="0.86"/><stop offset="0.42" stop-color="#5a7431" stop-opacity="0.75"/><stop offset="0.52" stop-color="#4f672f" stop-opacity="0.7"/><stop offset="0.61" stop-color="#516a2f" stop-opacity="0.71"/><stop offset="0.7" stop-color="#587231" stop-opacity="0.74"/><stop offset="0.79" stop-color="#648033" stop-opacity="0.79"/><stop offset="0.88" stop-color="#759437" stop-opacity="0.86"/><stop offset="0.96" stop-color="#8aad3b" stop-opacity="0.95"/><stop offset="1" stop-color="#95bb3d"/></linearGradient><linearGradient id="linear-gradient-9" x1="55.08" y1="30.38" x2="344.65" y2="30.38" gradientTransform="translate(-56.8 31.94) rotate(-0.81)" xlink:href="#linear-gradient"/><linearGradient id="linear-gradient-10" x1="55.08" y1="49.01" x2="344.65" y2="49.01" gradientTransform="translate(-56.8 31.94) rotate(-0.81)" xlink:href="#linear-gradient"/><linearGradient id="linear-gradient-13" x1="132.84" y1="93.16" x2="302.81" y2="93.16" gradientTransform="translate(-4.75 0.16) rotate(-0.08)" gradientUnits="userSpaceOnUse"><stop offset="0" stop-color="#95bb3d"/><stop offset="1" stop-color="#95bb3d"/></linearGradient><linearGradient id="linear-gradient-14" x1="136.85" y1="137.97" x2="283.17" y2="53.75" xlink:href="#linear-gradient-7"/><linearGradient id="linear-gradient-15" x1="164.26" y1="92.13" x2="190.18" y2="92.13" gradientUnits="userSpaceOnUse"><stop offset="0" stop-color="#4f672f"/><stop offset="1" stop-color="#95bb3d"/></linearGradient><linearGradient id="linear-gradient-16" x1="67.28" y1="151.35" x2="391.45" y2="151.35" gradientTransform="translate(-4.75 0.16) rotate(-0.08)" xlink:href="#linear-gradient-3"/><linearGradient id="linear-gradient-17" x1="226.76" y1="144.27" x2="237.13" y2="183.53" gradientTransform="matrix(1, 0, 0, 1, 0, 0)" xlink:href="#linear-gradient-3"/></defs><title>newAsset 92</title><g id="Layer_2" data-name="Layer 2"><g id="Layer_1-2" data-name="Layer 1"><circle class="cls-1" cx="144.78" cy="144.78" r="144.78"/><path class="cls-2" d="M135.44,122.13c1.82-5.78,3-11.88,6.4-17.92C138.39,110.25,137.26,116.35,135.44,122.13Z"/><path class="cls-2" d="M140.26,132.06c.3,0,.62,0,.93,0-.31,0-.63,0-.93,0Z"/><path class="cls-3" d="M140.81,132.08l.38,0c-.31,0-.63,0-.93,0Z"/><path class="cls-4" d="M140.26,132.06h0l-.64,0Z"/><path class="cls-4" d="M136.45,131.42l-.13-.06a6.3,6.3,0,0,1-1-.52c-.11-.07-.21-.15-.31-.23a4,4,0,0,1-.58-.52l-.24-.3a2.93,2.93,0,0,1-.33-.64c0-.1-.27-.2-.3-.31,0,.11.17.21.21.31a3.16,3.16,0,0,0,.37.64,3.72,3.72,0,0,0,.26.3,4.06,4.06,0,0,0,.59.52l.31.23a6.35,6.35,0,0,0,1,.52l.13.06a9.49,9.49,0,0,0,1.46.39l.48.07-.48-.07A9.49,9.49,0,0,1,136.45,131.42Z"/><line class="cls-5" x1="145.4" y1="135.36" x2="144.89" y2="135.44"/><line class="cls-6" x1="137.3" y1="128.19" x2="137.12" y2="127.66"/><path class="cls-7" d="M143.74,128.15"/><path class="cls-8" d="M179.38,187.21c-8.11,0-13.23-1.3-14-4-2-7.11,26-21.14,62.58-31.35,22.44-6.26,42.87-9.63,55.77-9.64,8.11,0,13.23,1.3,14,4,2,7.11-26,21.14-62.58,31.35-22.44,6.27-42.88,9.63-55.77,9.65"/><path class="cls-9" d="M132.45,185.73c8.11-40.31,45.62-70.81,90.71-70.87a94.64,94.64,0,0,1,70,30.09"/><path class="cls-10" d="M210.15,104.11"/><path class="cls-2" d="M135.44,122.13c1.82-5.78,3-11.88,6.4-17.92C138.39,110.25,137.26,116.35,135.44,122.13Z"/><path class="cls-2" d="M140.26,132.06c.3,0,.62,0,.93,0-.31,0-.63,0-.93,0Z"/><path class="cls-3" d="M140.81,132.08l.38,0c-.31,0-.63,0-.93,0Z"/><path class="cls-4" d="M140.26,132.06h0l-.64,0Z"/><path class="cls-4" d="M136.45,131.42l-.13-.06a6.3,6.3,0,0,1-1-.52c-.11-.07-.21-.15-.31-.23a4,4,0,0,1-.58-.52l-.24-.3a2.93,2.93,0,0,1-.33-.64c0-.1-.27-.2-.3-.31,0,.11.17.21.21.31a3.16,3.16,0,0,0,.37.64,3.72,3.72,0,0,0,.26.3,4.06,4.06,0,0,0,.59.52l.31.23a6.35,6.35,0,0,0,1,.52l.13.06a9.49,9.49,0,0,0,1.46.39l.48.07-.48-.07A9.49,9.49,0,0,1,136.45,131.42Z"/><path class="cls-4" d="M135.41,122.13c1.77-5.78,2.8-11.88,6.25-17.92C138.21,110.25,137.18,116.35,135.41,122.13Z"/><path class="cls-11" d="M386.71,104.3c-.6-2.19-2.12-4.41-5.14-6.67a43.32,43.32,0,0,0-12.94-6.07c-11.12-3.46-26.79-5.36-45.09-5.35-5.56,0-11.37.17-17.38.52l-46.11,70.66-46.24-52.88-2.35-1.08c-36.89,9.57-66.71,19.85-89.72,30.2-15.67,7-28.17,14.12-37.56,20.95S68.55,168,65.25,173.77a20.91,20.91,0,0,0-3.14,10.38,14.73,14.73,0,0,0,.52,3.89,16,16,0,0,0,4.59,7.46A32.18,32.18,0,0,0,77.6,201.8c9.09,3.67,22.6,5.88,40.27,5.86,28.41,0,67.53-5.6,117-18.45,5.22-1.35,10.24-2.73,15.19-4.11l1.39-.39c2.57-.72,5.13-1.45,7.63-2.18,1.9-.55,3.76-1.11,5.62-1.67l3.29-1c3.84-1.17,7.62-2.35,11.26-3.53,27.81-9,50.23-18.47,67.26-27.75s28.64-18.47,34.83-26.56c4.15-5.41,5.84-10.13,5.83-14.09A13.79,13.79,0,0,0,386.71,104.3Z"/><path class="cls-12" d="M391.76,102.93c-7.2-26.49-69.9-33.56-181.61-4.57s-159.77,64.56-152.57,91,66.92,33.87,178.63,4.88S399,129.42,391.76,102.93Z"/><path class="cls-2" d="M149.29,93.45a92,92,0,0,1,47.15-31.51q3.41-1,6.85-1.65c.76-.15,1.51-.25,2.27-.38,1.53-.27,3.07-.55,4.6-.75.91-.12,1.82-.18,2.73-.27,1.38-.14,2.75-.29,4.13-.37,1-.06,1.94-.06,2.91-.1s2.08-.1,3.12-.1c-1,0-2.08.07-3.12.1s-1.94,0-2.91.1c-1.37.08-2.75.23-4.13.37-.91.09-1.82.15-2.73.27-1.53.2-3.07.47-4.61.75-.76.13-1.53.23-2.28.38-2.29.46-4.6,1-6.88,1.65A92.09,92.09,0,0,0,144.9,99.38c-1.06,1.6-2.14,3.21-3.06,4.82.92-1.61,2.09-3.22,3.15-4.82C146.32,97.38,147.75,95.4,149.29,93.45Z"/><path class="cls-13" d="M223.93,58.36l-.87,0c-1,0-2.08.07-3.12.1C221.27,58.4,222.6,58.35,223.93,58.36Z"/><path class="cls-14" d="M149.29,93.45a92,92,0,0,1,47.15-31.51A92,92,0,0,0,149.29,93.45Z"/><path class="cls-2" d="M149.29,93.45a92,92,0,0,1,47.15-31.51q3.41-1,6.85-1.65c.76-.15,1.51-.25,2.27-.38,1.53-.27,3.07-.55,4.6-.75.91-.12,1.82-.18,2.73-.27,1.38-.14,2.75-.29,4.13-.37,1-.06,1.94-.06,2.91-.1s2.08-.1,3.12-.1c-1,0-2.08.07-3.12.1s-1.94,0-2.91.1c-1.37.08-2.75.23-4.13.37-.91.09-1.82.15-2.73.27-1.53.2-3.07.47-4.61.75-.76.13-1.53.23-2.28.38-2.29.46-4.6,1-6.88,1.65A92.09,92.09,0,0,0,144.9,99.38c-1.06,1.6-2.14,3.21-3.06,4.82.92-1.61,2.09-3.22,3.15-4.82C146.32,97.38,147.75,95.4,149.29,93.45Z"/><path class="cls-13" d="M223.93,58.36l-.87,0c-1,0-2.08.07-3.12.1C221.27,58.4,222.6,58.35,223.93,58.36Z"/><path class="cls-14" d="M149.29,93.45a92,92,0,0,1,47.15-31.51A92,92,0,0,0,149.29,93.45Z"/><path class="cls-4" d="M280.47,93.5c.44-.16.87-.31,1.31-.49a22.87,22.87,0,0,0,2.12-1,13.73,13.73,0,0,0,4.44-3.45,4.9,4.9,0,0,0,1.1-2.4,2.85,2.85,0,0,0-.64-2.17A41.34,41.34,0,0,0,286,80.92c-.3-.3-.62-.6-.93-.9q-1.14-1.1-2.39-2.16c-.36-.3-.71-.61-1.09-.91q-1.52-1.23-3.2-2.41l-.57-.42c-1.32-.91-2.71-1.78-4.15-2.63l-1.25-.7q-1.63-.92-3.35-1.8l-.63-.31A144.09,144.09,0,0,1,280.47,93.5Z"/><path class="cls-4" d="M267.57,68.25c-1.25-.6-2.53-1.18-3.83-1.73-.38-.16-.74-.33-1.13-.49q-2.52-1-5.17-1.95c-.45-.16-.91-.29-1.36-.44Q254,63,251.92,62.36l-1.83-.5q-2.1-.55-4.26-1l-1.56-.35c-1.94-.39-3.9-.74-5.9-1l-1.15-.14q-2.46-.33-5-.55l-2-.15q-2.25-.15-4.53-.21l-1.84,0c-1.32,0-2.66,0-4,.08-1,0-1.94,0-2.91.1-1.37.08-2.75.23-4.13.37-.91.09-1.82.15-2.73.27-1.53.2-3.07.47-4.6.75-.76.13-1.52.23-2.27.38q-3.44.69-6.85,1.65a92,92,0,0,0-47.15,31.51c-1.54,1.95-3,3.93-4.3,5.92-1.06,1.6-2.23,3.21-3.15,4.82-3.45,6-4.58,12.15-6.4,17.92a43.87,43.87,0,0,1-2.16,5.65v0a4.51,4.51,0,0,0,.25,1.06c0,.11.26.21.3.31a2.45,2.45,0,0,1-.12-.31,3,3,0,0,1-.07-1.06,3,3,0,0,0,.07,1.06,2.45,2.45,0,0,0,.12.31,2.93,2.93,0,0,0,.33.64l.24.3a4,4,0,0,0,.58.52c.1.08.2.16.31.23a6.3,6.3,0,0,0,1,.52l.13.06a9.49,9.49,0,0,0,1.46.39l.48.07c.39.06.8.11,1.23.14l.64,0c.3,0,.62,0,.93,0a22.4,22.4,0,0,0,3.12-.26c1-.16,2-.34,3-.55,8.67-1.85,15.86-5.53,28.35-10.46,1.39-.55,2.84-1.11,4.37-1.69,3.05-1.16,6.41-2.38,10.13-3.64,5.59-1.9,12-3.93,19.54-6,10-2.82,18.49-4.84,25.82-6.38,3.66-.77,7-1.42,10.19-2l4.55-.81,8.2-1.39c2.56-.43,5-.85,7.26-1.3a95.85,95.85,0,0,0,12.19-3.1c.65-.22,1.29-.45,1.93-.69l.66-.25a144.09,144.09,0,0,0-12-24.8Z"/><path class="cls-4" d="M305.86,81.5c-9.88-12.28-33-28.09-52.32-33.15a145.06,145.06,0,0,1,14.91,20.3l.65.35q1.72.87,3.35,1.8l1.25.7c1.44.85,2.83,1.72,4.15,2.63l.57.42q1.67,1.18,3.2,2.41c.37.3.73.61,1.09.91q1.25,1.06,2.39,2.16c.31.3.63.6.93.9A41.34,41.34,0,0,1,288.79,84a2.85,2.85,0,0,1,.64,2.17,4.9,4.9,0,0,1-1.1,2.4A13.73,13.73,0,0,1,283.89,92a22.87,22.87,0,0,1-2.12,1c-.44.17-.87.32-1.31.49q2.41,6.53,4.21,13.33c.76-.28,1.53-.55,2.3-.86,8.45-3.4,19.84-9,21.61-15.76C310,84.93,309.26,85.73,305.86,81.5Z"/><path class="cls-4" d="M279.81,93.74c-.64.24-1.29.47-1.93.69a95.85,95.85,0,0,1-12.19,3.1c-2.3.45-4.7.87-7.26,1.3l-8.2,1.39-4.55.81c-3.14.57-6.52,1.22-10.19,2-7.33,1.54-15.8,3.56-25.82,6.38-7.52,2.12-13.95,4.14-19.54,6-3.73,1.27-7.08,2.49-10.13,3.64-1.53.58-3,1.14-4.37,1.69-12.49,4.94-19.68,8.62-28.35,10.46-1,.21-1.95.39-3,.55a22.4,22.4,0,0,1-3.12.26l-.38,0-.55,0h0l-.64,0c-.43,0-.83-.08-1.23-.14l-.48-.07a9.49,9.49,0,0,1-1.46-.39l-.13-.06a6.35,6.35,0,0,1-1-.52l-.31-.23a4.06,4.06,0,0,1-.59-.52,3.72,3.72,0,0,1-.26-.3,3.16,3.16,0,0,1-.37-.64c0-.1-.18-.2-.21-.31a4.51,4.51,0,0,1-.25-1.06v0a41.34,41.34,0,0,0,2.13-5.65c1.77-5.78,2.8-11.88,6.25-17.92-3.45,6-4.48,12.15-6.25,17.92a41.34,41.34,0,0,1-2.13,5.65,43.87,43.87,0,0,0,2.16-5.65c1.82-5.78,3-11.88,6.4-17.92.92-1.61,2-3.22,3.06-4.82A92.09,92.09,0,0,1,196.4,61.94c2.28-.64,4.58-1.18,6.88-1.65.76-.15,1.53-.25,2.28-.38,1.53-.27,3.07-.55,4.61-.75.91-.12,1.82-.18,2.73-.27,1.38-.14,2.75-.29,4.13-.37,1-.06,1.94-.06,2.91-.1s2.08-.1,3.12-.1l.87,0,1.84,0q2.28.06,4.53.21l2,.15q2.5.22,5,.55l1.15.14c2,.29,4,.64,5.9,1l1.56.35q2.16.47,4.26,1l1.83.5q2.11.6,4.16,1.27c.45.15.91.29,1.36.44q2.65.91,5.17,1.95c.38.16.75.33,1.13.49,1.31.56,2.59,1.13,3.83,1.73l.88.41a145.06,145.06,0,0,0-14.91-20.3,120.91,120.91,0,0,0-30.48-4,112,112,0,0,0-30.41,4.13c-42.86,12.09-69.1,48.14-72.86,77.5-.62,4.81-1.22,9.38,2,13,2.7,3.07,9.93,7,19,7a36.57,36.57,0,0,0,5.67-.46c9.21-1.45,16.24-4.38,25.14-8.09a330.27,330.27,0,0,1,41.82-14.66A381,381,0,0,1,258,113.06c10-1.68,18.09-3.07,26.69-6.23q-1.79-6.8-4.21-13.33Z"/><path class="cls-4" d="M237.22,59.32q-2.46-.33-5-.55l-2-.15,2,.15Q234.77,59,237.22,59.32Z"/><path class="cls-4" d="M230.3,58.62q-2.25-.15-4.53-.21l-1.84,0,1.84,0Q228,58.46,230.3,58.62Z"/><path class="cls-4" d="M269.09,69l-.65-.35,0,0Z"/><path class="cls-4" d="M268.47,68.69l0,0-.88-.41Z"/><path class="cls-11" d="M185.6,78.4a34.9,34.9,0,0,0-9.33,4.8,29,29,0,0,0-12,17.92,3.49,3.49,0,0,0,6.84,1.38,22,22,0,0,1,9.24-13.62,30.4,30.4,0,0,1,5.18-3c.68-.31,1.24-.52,1.61-.66l.41-.14.09,0h0a3.49,3.49,0,1,0-2-6.68Z"/><path class="cls-15" d="M132.45,128.2c8.11-40.31,45.62-70.81,90.71-70.87a94.64,94.64,0,0,1,70,30.09"/><path class="cls-16" d="M132.45,128.2c8.11-40.31,45.62-70.81,90.71-70.87a94.64,94.64,0,0,1,70,30.09"/><path class="cls-11" d="M185.6,78.4a34.9,34.9,0,0,0-9.33,4.8,29,29,0,0,0-12,17.92,3.49,3.49,0,0,0,6.84,1.38,22,22,0,0,1,9.24-13.62,30.4,30.4,0,0,1,5.18-3c.68-.31,1.24-.52,1.61-.66l.41-.14.09,0h0a3.49,3.49,0,1,0-2-6.68Z"/><path class="cls-17" d="M185.69,78.76a34.9,34.9,0,0,0-9.33,4.8,29,29,0,0,0-12,17.92,3.49,3.49,0,0,0,6.84,1.38,22,22,0,0,1,9.24-13.62,30.4,30.4,0,0,1,5.18-3c.68-.31,1.24-.52,1.61-.66l.41-.14.09,0h0a3.49,3.49,0,1,0-2-6.68Z"/><path class="cls-11" d="M386.71,104.3c-.6-2.19-2.12-4.41-5.14-6.67a43.32,43.32,0,0,0-12.94-6.07,124.62,124.62,0,0,0-26-4.6c-27.81-4.37-70.6.93-130.83,16.59-96.2,25-131.84,49-138.27,71.4,22.92-17.45,79.6-42.9,141-58.35,18.17-4.57,50.78-11.44,82.73-16.3l-57.09,87.49c14-3.73,27.06-7.55,39.05-11.45,27.81-9,50.23-18.47,67.26-27.75s28.64-18.47,34.83-26.56c4.15-5.41,5.84-10.13,5.83-14.09A13.79,13.79,0,0,0,386.71,104.3Z"/><path class="cls-4" d="M81.31,256.07l7.8-2.79a4.21,4.21,0,1,0-2.83-7.93l-7.8,2.79a4.21,4.21,0,1,0,2.83,7.93"/><path class="cls-4" d="M228.93,199.66c-15.35,4-29.59,7.19-43,9.84l-78.53,28.28a4.21,4.21,0,0,0,2.85,7.92l151-54.38A4.09,4.09,0,0,0,263,190C252.34,193.29,241,196.52,228.93,199.66Z"/><path class="cls-4" d="M75.43,206.4l-16.12,5.72A4.21,4.21,0,0,0,62.12,220l25.45-9A61.94,61.94,0,0,1,75.43,206.4Z"/><path class="cls-4" d="M63.47,241.7l95.44-34.2a4.32,4.32,0,1,0-2.91-8.13l-95.44,34.2a4.32,4.32,0,1,0,2.91,8.13"/><path class="cls-18" d="M63.11,189.62c-6-13,68.43-52.13,151.47-73,41.87-10.53,160.51-33.37,171-15.45,13.92,41.75-90.85,71.89-129.16,82.64C220,194,174.22,203.54,155.23,204.88,144.79,205.61,75.72,217,63.11,189.62Z"/><path class="cls-11" d="M146.14,181.25c3.6,13.25,35,16.79,90.84,2.29s81.41-32.45,77.81-45.69-33.91-17.22-89.79-2.72S142.54,168,146.14,181.25"/><path class="cls-19" d="M237,183.56c48.82-12.61,74.43-28,77.74-40.47-10.05-8.65-31.23-13.78-87.16,1-48.76,12.86-74.63,30-77.94,42.49C159.69,195.19,187.66,196.3,237,183.56Z"/><path class="cls-20" d="M297.73,146.22c2,7.11-26,21.14-62.58,31.35s-67.78,12.71-69.77,5.6,26-21.14,62.58-31.35,67.78-12.71,69.77-5.6"/><path class="cls-21" d="M270,149c-9,0-23.19,2.35-38.8,6.71-25.43,7.1-44.93,16.87-43.54,21.81.53,1.91,4.1,2.82,9.74,2.82,9,0,23.19-2.35,38.8-6.71,25.43-7.1,44.92-16.87,43.54-21.81-.53-1.91-4.1-2.82-9.74-2.82"/><path class="cls-4" d="M43,239.82l-5.65,2c2.12,2.35,4.34,4.6,6.61,6.8l2-.71A4.32,4.32,0,1,0,43,239.82Z"/></g></g></svg>